<svg width="56" height="38" viewBox="0 0 56 38" fill="none" xmlns="http://www.w3.org/2000/svg">
<g id="Payoneer-Logo.wine (1) 1">
<path id="Vector" d="M17.422 12.3718C17.4751 13.5731 18.5131 18.1576 18.5131 18.1576C18.8946 19.0861 19.2229 18.1576 19.2229 18.1576C20.4788 14.3913 17.9124 12.2087 17.9124 12.2087C17.2573 11.8258 17.422 12.3718 17.422 12.3718ZM32.3229 11.7172C32.3229 11.7172 33.5793 12.5905 32.3229 12.7541C32.3229 12.7541 27.6284 13.2997 24.1353 16.5757C24.1353 16.5757 18.8946 21.1592 16.93 26.1813C16.93 26.1813 16.2749 26.1813 16.4941 25.1992C16.7122 24.2168 18.0216 19.9043 23.8616 14.6106C23.8616 14.6106 29.4854 9.4793 32.3229 11.7172Z" fill="#FF4600"/>
<path id="Vector_2" d="M8.43933 18.9839C8.64671 19.0275 8.83291 19.049 9.10638 19.049C10.1771 19.049 10.8986 18.3602 10.8986 17.4856C10.8986 16.6987 10.3413 16.4149 9.62047 16.4149C9.30276 16.4149 9.06229 16.4369 8.90942 16.48L8.43933 18.9839ZM7.83813 15.5729C8.28638 15.4632 8.95343 15.3981 9.60915 15.3981C10.2982 15.3981 11.0196 15.5396 11.5004 15.9228C11.9267 16.2507 12.1781 16.7308 12.1781 17.3877C12.1781 18.2618 11.7625 18.9731 11.2377 19.3881C10.6478 19.8582 9.80519 20.0878 8.93077 20.0878C8.66814 20.0878 8.43933 20.0546 8.24238 20.0332L7.70661 22.821H6.46094L7.83813 15.5729ZM15.5552 18.4147C15.4243 18.3813 15.2607 18.3602 15.031 18.3602C13.8612 18.3602 12.9428 19.6835 12.9428 20.8971C12.9428 21.4537 13.1505 21.9134 13.7083 21.9134C14.309 21.9134 15.031 21.1705 15.2824 19.8144L15.5552 18.4147ZM15.0417 22.821C15.0417 22.5033 15.0852 22.0776 15.1295 21.6286H15.1075C14.5829 22.6023 13.8719 22.9409 13.1942 22.9409C12.2434 22.9409 11.6196 22.1974 11.6196 21.1265C11.6196 19.3117 12.8878 17.3764 15.3695 17.3764C15.9488 17.3764 16.5721 17.4856 16.9877 17.6168L16.4302 20.3936C16.2767 21.1806 16.1895 22.1867 16.2115 22.821H15.0417ZM24.2228 20.7109C24.2228 21.4425 24.6054 21.9578 25.2614 21.9578C26.2125 21.9578 26.8467 20.6452 26.8467 19.5848C26.8467 19.0377 26.5948 18.36 25.8302 18.36C24.8133 18.36 24.2228 19.7161 24.2228 20.7109ZM28.1585 19.5744C28.1585 21.3886 26.9009 22.9407 25.0867 22.9407C23.7414 22.9407 22.9114 22.0116 22.9114 20.7431C22.9114 18.9399 24.1683 17.3765 25.9831 17.3765C27.415 17.3765 28.1585 18.4041 28.1585 19.5744ZM28.3979 22.821L29.0869 19.1474C29.2178 18.5132 29.2943 17.9557 29.36 17.4969H30.4977L30.3772 18.448H30.3986C30.8901 17.737 31.5684 17.3764 32.3119 17.3764C33.0767 17.3764 33.6674 17.8361 33.6674 18.8416C33.6674 19.0817 33.6244 19.4532 33.5694 19.7159L32.989 22.821H31.7101L32.2781 19.8144C32.312 19.6178 32.3444 19.3881 32.3444 19.1802C32.3444 18.7319 32.1805 18.4147 31.6777 18.4147C31.0984 18.4147 30.3547 19.1142 30.1252 20.3612L29.6663 22.821H28.3979ZM37.055 18.3275C36.2566 18.3275 35.7324 19.038 35.5794 19.6835C36.8908 19.6942 37.7333 19.5193 37.7333 18.8746C37.7333 18.5357 37.4599 18.3275 37.055 18.3275ZM38.2685 22.5146C37.7435 22.7877 37.0336 22.9409 36.3881 22.9409C34.9136 22.9409 34.2026 22.034 34.2026 20.7328C34.2026 19.1256 35.3825 17.3766 37.2192 17.3766C38.2685 17.3766 38.9356 17.9776 38.9356 18.8746C38.9356 20.2407 37.504 20.6778 35.4488 20.6344C35.4265 20.8199 35.4702 21.1806 35.5907 21.3885C35.7986 21.7497 36.1801 21.9353 36.6837 21.9353C37.2856 21.9353 37.7658 21.7821 38.1495 21.5855L38.2685 22.5146ZM42.0063 18.3275C41.2087 18.3275 40.6837 19.038 40.5307 19.6835C41.8421 19.6942 42.6847 19.5193 42.6847 18.8746C42.6847 18.5357 42.4113 18.3275 42.0063 18.3275ZM43.2199 22.5146C42.6957 22.7877 41.9849 22.9409 41.3405 22.9409C39.8648 22.9409 39.1538 22.034 39.1538 20.7328C39.1538 19.1256 40.3338 17.3766 42.1706 17.3766C43.2198 17.3766 43.8881 17.9776 43.8881 18.8746C43.8881 20.2407 42.4553 20.6778 40.4 20.6344C40.3775 20.8199 40.4215 21.1806 40.542 21.3885C40.7499 21.7497 41.1323 21.9353 41.635 21.9353C42.2368 21.9353 42.7171 21.7821 43.1008 21.5855L43.2199 22.5146ZM43.9634 22.821L44.5864 19.5411C44.7283 18.7868 44.8048 17.9669 44.8586 17.4968H45.9632C45.9306 17.8575 45.8981 18.2291 45.843 18.6122H45.8755C46.2379 17.9012 46.8159 17.3764 47.538 17.3764C47.637 17.3764 47.7349 17.3877 47.8227 17.3877L47.5706 18.634C47.5052 18.6226 47.4178 18.6226 47.33 18.6226C46.422 18.6226 45.843 19.5411 45.636 20.6778L45.2311 22.821H43.9634ZM48.7898 17.9839H48.8831C48.9787 17.9839 49.0418 17.9305 49.0418 17.8501C49.0418 17.7595 48.9755 17.7197 48.8799 17.7197C48.8359 17.7197 48.8046 17.7229 48.7899 17.7264L48.7898 17.9839ZM48.6987 17.6627C48.7563 17.653 48.8146 17.6482 48.873 17.6482C48.9697 17.6482 49.034 17.6679 49.0765 17.7061C49.1116 17.7371 49.1319 17.7855 49.1319 17.8411C49.1319 17.9326 49.0743 17.9946 49.0001 18.0192V18.0227C49.054 18.0412 49.0855 18.0919 49.1036 18.1649C49.1261 18.2622 49.143 18.3309 49.1577 18.3584H49.0633C49.0519 18.3369 49.036 18.2776 49.0181 18.1898C48.9967 18.0924 48.9575 18.0566 48.8752 18.0531H48.7899V18.3584H48.6987V17.6627Z" fill="#0B0F0E"/>
<path id="Vector_3" d="M48.9092 17.3767C48.7422 17.3768 48.582 17.4432 48.4639 17.5613C48.3458 17.6794 48.2794 17.8396 48.2793 18.0066C48.2793 18.3542 48.5617 18.6368 48.9092 18.6368C49.2568 18.6368 49.5392 18.3542 49.5392 18.0066C49.5391 17.8396 49.4727 17.6794 49.3545 17.5613C49.2364 17.4432 49.0763 17.3768 48.9092 17.3767ZM48.9092 17.474C48.9792 17.474 49.0484 17.4878 49.113 17.5146C49.1776 17.5413 49.2362 17.5806 49.2856 17.63C49.3351 17.6795 49.3742 17.7382 49.4009 17.8029C49.4276 17.8675 49.4413 17.9367 49.4412 18.0066C49.4412 18.3012 49.2029 18.5398 48.9092 18.5398C48.8392 18.5398 48.7699 18.526 48.7052 18.4992C48.6405 18.4724 48.5817 18.4332 48.5322 18.3837C48.4827 18.3342 48.4434 18.2754 48.4166 18.2107C48.3898 18.146 48.376 18.0767 48.376 18.0066C48.376 17.9366 48.3897 17.8673 48.4165 17.8026C48.4433 17.738 48.4826 17.6792 48.5321 17.6297C48.5817 17.5803 48.6405 17.541 48.7052 17.5143C48.7699 17.4876 48.8392 17.4739 48.9092 17.474Z" fill="#0B0F0E"/>
</g>
</svg>
