<svg width="56" height="39" viewBox="0 0 56 39" fill="none" xmlns="http://www.w3.org/2000/svg">
<g id="PayPal-Logo.wine (1) 1">
<path id="Vector" d="M22.5702 16.6111H20.1864C20.1075 16.611 20.0311 16.639 19.9711 16.6899C19.9111 16.7409 19.8714 16.8114 19.8591 16.8889L18.895 22.9633C18.8905 22.9915 18.8923 23.0203 18.9001 23.0478C18.908 23.0752 18.9217 23.1007 18.9404 23.1223C18.9591 23.144 18.9823 23.1614 19.0084 23.1733C19.0345 23.1852 19.0628 23.1913 19.0915 23.1913H20.2296C20.3086 23.1913 20.3849 23.1633 20.445 23.1123C20.505 23.0613 20.5447 22.9907 20.5569 22.9131L20.8169 21.2747C20.8291 21.1973 20.8688 21.1267 20.9287 21.0757C20.9887 21.0247 21.065 20.9966 21.1439 20.9966H21.8985C23.4687 20.9966 24.375 20.2415 24.6117 18.7451C24.7183 18.0905 24.6162 17.5761 24.3077 17.2159C23.9689 16.8203 23.368 16.6111 22.5702 16.6111ZM22.8452 18.8296C22.7148 19.6797 22.0613 19.6797 21.4293 19.6797H21.0696L21.322 18.0922C21.3294 18.0458 21.3532 18.0035 21.3892 17.9729C21.4251 17.9424 21.4709 17.9256 21.5182 17.9256H21.6831C22.1135 17.9256 22.5196 17.9256 22.7295 18.1694C22.8546 18.3149 22.8929 18.5311 22.8452 18.8296ZM29.6957 18.8023H28.5542C28.5069 18.8023 28.4611 18.8191 28.4252 18.8496C28.3892 18.8802 28.3654 18.9225 28.358 18.9689L28.3074 19.2862L28.2276 19.1712C27.9805 18.8148 27.4294 18.6956 26.8794 18.6956C25.618 18.6956 24.5406 19.645 24.3307 20.9769C24.2216 21.6412 24.3767 22.2765 24.756 22.7195C25.1038 23.1268 25.6016 23.2966 26.1938 23.2966C27.2102 23.2966 27.7738 22.6471 27.7738 22.6471L27.7229 22.9623C27.7184 22.9905 27.72 23.0193 27.7278 23.0468C27.7355 23.0743 27.7492 23.0998 27.7678 23.1215C27.7864 23.1432 27.8096 23.1607 27.8356 23.1727C27.8617 23.1846 27.8901 23.1909 27.9188 23.1909H28.947C29.026 23.191 29.1024 23.1629 29.1624 23.1119C29.2224 23.0609 29.2621 22.9903 29.2743 22.9128L29.8913 19.0302C29.8958 19.0021 29.8942 18.9733 29.8864 18.9459C29.8787 18.9185 29.8651 18.8931 29.8465 18.8714C29.8279 18.8497 29.8048 18.8323 29.7787 18.8204C29.7527 18.8084 29.7244 18.8023 29.6957 18.8023ZM28.1046 21.0101C27.9944 21.6582 27.4768 22.0932 26.8167 22.0932C26.4852 22.0932 26.2203 21.9876 26.0502 21.7874C25.8815 21.5886 25.8173 21.3056 25.871 20.9904C25.9738 20.3478 26.5002 19.8986 27.1502 19.8986C27.4744 19.8986 27.7379 20.0056 27.9115 20.2075C28.0854 20.4116 28.1544 20.6963 28.1046 21.0101ZM35.7753 18.8023H34.6282C34.5741 18.8024 34.5208 18.8156 34.473 18.8407C34.4252 18.8659 34.3843 18.9023 34.3539 18.9467L32.7718 21.2626L32.1011 19.0371C32.0806 18.9693 32.0385 18.9098 31.9813 18.8675C31.924 18.8252 31.8546 18.8023 31.7833 18.8023H30.656C30.6244 18.8022 30.5932 18.8096 30.565 18.824C30.5368 18.8383 30.5125 18.8591 30.4941 18.8846C30.4756 18.9102 30.4636 18.9397 30.459 18.9708C30.4543 19.0019 30.4572 19.0337 30.4675 19.0635L31.731 22.7482L30.5431 24.4147C30.522 24.4442 30.5095 24.479 30.5069 24.5151C30.5043 24.5513 30.5118 24.5874 30.5286 24.6196C30.5453 24.6518 30.5706 24.6788 30.6018 24.6976C30.6329 24.7165 30.6687 24.7264 30.7052 24.7264H31.8509C31.9044 24.7265 31.9571 24.7137 32.0045 24.6891C32.0519 24.6644 32.0926 24.6288 32.1231 24.5851L35.9384 19.1123C35.9591 19.0827 35.9712 19.048 35.9735 19.012C35.9758 18.9761 35.9681 18.9402 35.9513 18.9082C35.9345 18.8763 35.9092 18.8495 35.8782 18.8309C35.8471 18.8122 35.8116 18.8023 35.7753 18.8023Z" fill="#253B80"/>
<path id="Vector_2" d="M39.5722 16.6112H37.188C37.1092 16.6112 37.0329 16.6392 36.973 16.6901C36.913 16.7411 36.8734 16.8116 36.8611 16.889L35.897 22.9634C35.8925 22.9916 35.8942 23.0204 35.902 23.0478C35.9098 23.0752 35.9234 23.1006 35.9421 23.1223C35.9607 23.1439 35.9838 23.1613 36.0098 23.1733C36.0359 23.1852 36.0642 23.1914 36.0929 23.1914H37.3163C37.3715 23.1913 37.4249 23.1716 37.4668 23.136C37.5087 23.1003 37.5364 23.0509 37.545 22.9967L37.8186 21.2748C37.8308 21.1974 37.8704 21.1268 37.9304 21.0758C37.9903 21.0248 38.0666 20.9967 38.1455 20.9967H38.8998C40.4704 20.9967 41.3763 20.2416 41.6133 18.7452C41.7203 18.0906 41.6175 17.5762 41.309 17.216C40.9706 16.8204 40.37 16.6112 39.5722 16.6112ZM39.8472 18.8298C39.7172 19.6798 39.0636 19.6798 38.4313 19.6798H38.072L38.3247 18.0923C38.3319 18.0459 38.3557 18.0035 38.3916 17.973C38.4275 17.9424 38.4733 17.9256 38.5206 17.9257H38.6854C39.1156 17.9257 39.522 17.9257 39.7318 18.1696C39.8569 18.315 39.8949 18.5312 39.8472 18.8298ZM46.6974 18.8024H45.5566C45.5093 18.8023 45.4635 18.819 45.4275 18.8496C45.3916 18.8801 45.3679 18.9225 45.3607 18.969L45.3101 19.2863L45.23 19.1713C44.9828 18.8149 44.4321 18.6957 43.8821 18.6957C42.6207 18.6957 41.5436 19.6451 41.3338 20.977C41.225 21.6413 41.3794 22.2766 41.7587 22.7196C42.1072 23.1269 42.6043 23.2967 43.1965 23.2967C44.2129 23.2967 44.7765 22.6472 44.7765 22.6472L44.7256 22.9624C44.7211 22.9906 44.7228 23.0195 44.7305 23.0471C44.7383 23.0746 44.7521 23.1001 44.7708 23.1219C44.7895 23.1436 44.8127 23.161 44.8388 23.173C44.865 23.1849 44.8934 23.1911 44.9222 23.191H45.9501C46.029 23.191 46.1053 23.1629 46.1652 23.1119C46.2252 23.0609 46.2648 22.9903 46.277 22.9129L46.8943 19.0303C46.8987 19.0021 46.8969 18.9733 46.889 18.9458C46.8811 18.9184 46.8673 18.893 46.8486 18.8713C46.8299 18.8497 46.8067 18.8323 46.7806 18.8204C46.7545 18.8085 46.7261 18.8024 46.6974 18.8024ZM45.1062 21.0102C44.9968 21.6583 44.4785 22.0933 43.8183 22.0933C43.4875 22.0933 43.2219 21.9877 43.0518 21.7875C42.8831 21.5887 42.8197 21.3057 42.8727 20.9905C42.9762 20.3479 43.5018 19.8987 44.1519 19.8987C44.476 19.8987 44.7396 20.0057 44.9131 20.2077C45.0878 20.4117 45.1568 20.6964 45.1062 21.0102ZM48.0432 16.7778L47.0648 22.9634C47.0603 22.9916 47.062 23.0204 47.0698 23.0478C47.0776 23.0752 47.0912 23.1006 47.1099 23.1223C47.1285 23.1439 47.1516 23.1613 47.1776 23.1733C47.2037 23.1852 47.232 23.1914 47.2607 23.1914H48.2443C48.4078 23.1914 48.5465 23.0736 48.5716 22.9132L49.5364 16.8391C49.5409 16.8109 49.5392 16.7822 49.5314 16.7547C49.5236 16.7273 49.51 16.7019 49.4913 16.6802C49.4727 16.6585 49.4496 16.641 49.4236 16.6291C49.3975 16.6171 49.3692 16.6109 49.3405 16.6108H48.2391C48.1918 16.611 48.1461 16.6279 48.1102 16.6585C48.0743 16.6891 48.0506 16.7314 48.0432 16.7778Z" fill="#179BD7"/>
<path id="Vector_3" d="M8.99484 24.3718L9.17713 23.2212L8.77106 23.2118H6.83203L8.17956 14.721C8.18357 14.6951 8.19683 14.6714 8.21692 14.6544C8.23701 14.6373 8.26259 14.628 8.28901 14.6282H11.5585C12.6439 14.6282 13.3929 14.8526 13.784 15.2956C13.9674 15.5035 14.0841 15.7207 14.1406 15.9597C14.1999 16.2104 14.2009 16.5101 14.143 16.8755L14.1389 16.9022V17.1363L14.3222 17.2395C14.4622 17.31 14.588 17.4053 14.6934 17.5208C14.8503 17.6985 14.9517 17.9243 14.9946 18.1921C15.0388 18.4675 15.0242 18.7951 14.9517 19.1661C14.868 19.5928 14.7328 19.9645 14.5502 20.2686C14.389 20.5411 14.1723 20.777 13.914 20.9614C13.6714 21.1325 13.3832 21.2624 13.0573 21.3455C12.7415 21.4273 12.3814 21.4685 11.9865 21.4685H11.7321C11.5501 21.4685 11.3734 21.5336 11.2347 21.6503C11.0961 21.7683 11.0042 21.9313 10.9753 22.1103L10.9562 22.2139L10.6341 24.242L10.6195 24.3164C10.6156 24.34 10.609 24.3518 10.5993 24.3597C10.5898 24.3674 10.578 24.3717 10.5658 24.3718H8.99484Z" fill="#253B80"/>
<path id="Vector_4" d="M14.4957 16.9292C14.486 16.9912 14.4748 17.0546 14.4623 17.1197C14.0311 19.3196 12.556 20.0795 10.672 20.0795H9.71279C9.4824 20.0795 9.28825 20.2458 9.25235 20.4716L8.76123 23.5669L8.62215 24.4443C8.61661 24.4791 8.61873 24.5146 8.62835 24.5486C8.63798 24.5825 8.65489 24.6139 8.67791 24.6407C8.70093 24.6675 8.72952 24.689 8.76172 24.7038C8.79391 24.7185 8.82895 24.7262 8.8644 24.7262H10.5657C10.7672 24.7262 10.9383 24.5807 10.97 24.3833L10.9868 24.2974L11.3071 22.2773L11.3277 22.1665C11.359 21.9683 11.5305 21.8229 11.732 21.8229H11.9864C13.6348 21.8229 14.9251 21.1578 15.3023 19.2333C15.4598 18.4294 15.3783 17.7581 14.9614 17.286C14.8293 17.1399 14.6715 17.019 14.4957 16.9292Z" fill="#179BD7"/>
<path id="Vector_5" d="M14.0443 16.7506C13.9066 16.711 13.7666 16.6801 13.625 16.6581C13.3452 16.6154 13.0624 16.5949 12.7794 16.5968H10.2168C10.1192 16.5967 10.0249 16.6313 9.95081 16.6943C9.87672 16.7574 9.82776 16.8446 9.81278 16.9404L9.26764 20.3717L9.25195 20.4718C9.26894 20.3625 9.3247 20.2629 9.40915 20.191C9.49361 20.1191 9.60118 20.0796 9.7124 20.0797H10.6716C12.5556 20.0797 14.0307 19.3194 14.4619 17.1198C14.4748 17.0547 14.4856 16.9913 14.4953 16.9293C14.3815 16.87 14.263 16.8203 14.1408 16.7807C14.1088 16.7702 14.0766 16.7601 14.0443 16.7506Z" fill="#222D65"/>
<path id="Vector_6" d="M9.81195 16.9405C9.8268 16.8447 9.87573 16.7573 9.94986 16.6944C10.024 16.6314 10.1184 16.5969 10.2159 16.5972H12.7785C13.0821 16.5972 13.3655 16.6169 13.6241 16.6585C13.7991 16.6858 13.9717 16.7267 14.1403 16.7808C14.2676 16.8227 14.3857 16.8722 14.4948 16.9294C14.6231 16.1164 14.4938 15.5629 14.0515 15.0617C13.5638 14.5099 12.6837 14.2737 11.5575 14.2737H8.28805C8.058 14.2737 7.86176 14.4399 7.82621 14.6661L6.46439 23.2442C6.45805 23.2841 6.46046 23.3248 6.47147 23.3636C6.48247 23.4024 6.5018 23.4384 6.52814 23.4691C6.55447 23.4997 6.58717 23.5244 6.62401 23.5413C6.66084 23.5582 6.70092 23.567 6.7415 23.5671H8.76L9.2668 20.3717L9.81195 16.9405Z" fill="#253B80"/>
</g>
</svg>
