<svg width="56" height="38" viewBox="0 0 56 38" fill="none" xmlns="http://www.w3.org/2000/svg">
<g id="Stripe_(company)-Logo.wine (1) 1">
<g id="g32">
<path id="path18" fill-rule="evenodd" clip-rule="evenodd" d="M49.541 19.2992C49.541 16.2359 48.0572 13.8188 45.2213 13.8188C42.3735 13.8188 40.6504 16.2359 40.6504 19.2753C40.6504 22.877 42.6846 24.6958 45.6042 24.6958C47.0282 24.6958 48.1051 24.3727 48.9188 23.918V21.5248C48.1051 21.9317 47.1718 22.183 45.9871 22.183C44.8265 22.183 43.7974 21.7761 43.6658 20.3641H49.5171C49.5171 20.2086 49.541 19.5864 49.541 19.2992ZM43.6299 18.1624C43.6299 16.8103 44.4555 16.2479 45.2094 16.2479C45.9393 16.2479 46.7171 16.8103 46.7171 18.1624H43.6299Z" fill="#32325D"/>
<path id="path20" fill-rule="evenodd" clip-rule="evenodd" d="M36.0318 13.8188C34.8591 13.8188 34.1053 14.3693 33.6865 14.7522L33.5309 14.0103H30.8984V27.9624L33.8899 27.3282L33.9019 23.9419C34.3326 24.253 34.9668 24.6958 36.0198 24.6958C38.1617 24.6958 40.1121 22.9727 40.1121 19.1795C40.1001 15.7094 38.1258 13.8188 36.0318 13.8188ZM35.3138 22.0633C34.6078 22.0633 34.189 21.812 33.9019 21.5009L33.8899 17.0616C34.201 16.7146 34.6318 16.4753 35.3138 16.4753C36.4027 16.4753 37.1566 17.6958 37.1566 19.2633C37.1566 20.8667 36.4147 22.0633 35.3138 22.0633Z" fill="#32325D"/>
<path id="polygon22" fill-rule="evenodd" clip-rule="evenodd" d="M29.7847 10.0376L26.7812 10.6718V13.1128L29.7847 12.4667V10.0376Z" fill="#32325D"/>
<path id="rect24" fill-rule="evenodd" clip-rule="evenodd" d="M26.7812 14.0222H29.7847V24.4923H26.7812V14.0222Z" fill="#32325D"/>
<path id="path26" fill-rule="evenodd" clip-rule="evenodd" d="M23.5632 14.9077L23.3717 14.0222H20.7871V24.4923H23.7786V17.3966C24.4845 16.4752 25.6811 16.6428 26.0521 16.7744V14.0222C25.6692 13.8787 24.2692 13.6154 23.5632 14.9077Z" fill="#32325D"/>
<path id="path28" fill-rule="evenodd" clip-rule="evenodd" d="M17.5781 11.4257L14.6585 12.0479L14.6465 21.6325C14.6465 23.4034 15.9747 24.7077 17.7456 24.7077C18.7268 24.7077 19.4448 24.5282 19.8396 24.3128V21.8838C19.4567 22.0393 17.5661 22.5898 17.5661 20.8188V16.571H19.8396V14.0222H17.5661L17.5781 11.4257Z" fill="#32325D"/>
<path id="path30" fill-rule="evenodd" clip-rule="evenodd" d="M9.49024 17.0616C9.49024 16.5949 9.87315 16.4154 10.5073 16.4154C11.4167 16.4154 12.5655 16.6906 13.4749 17.1812V14.3693C12.4817 13.9744 11.5005 13.8188 10.5073 13.8188C8.07828 13.8188 6.46289 15.0872 6.46289 17.2052C6.46289 20.5077 11.0099 19.9812 11.0099 21.4052C11.0099 21.9556 10.5313 22.1351 9.86118 22.1351C8.86802 22.1351 7.59964 21.7283 6.59451 21.1778V24.0257C7.70733 24.5043 8.83212 24.7077 9.86118 24.7077C12.3501 24.7077 14.0612 23.4753 14.0612 21.3334C14.0492 17.7676 9.49024 18.4018 9.49024 17.0616Z" fill="#32325D"/>
</g>
</g>
</svg>
