<svg width="1202" height="228" viewBox="0 0 1202 228" fill="none" xmlns="http://www.w3.org/2000/svg">
<rect x="1" y="1.00012" width="1200" height="226" rx="12" stroke="#E4E9EE"/>
<path d="M109 67.0001C109 90.1961 90.196 109 67 109C43.804 109 25 90.1961 25 67.0001C25 43.8042 43.804 25.0001 67 25.0001C90.196 25.0001 109 43.8042 109 67.0001ZM29.2 67.0001C29.2 87.8765 46.1236 104.8 67 104.8C87.8764 104.8 104.8 87.8765 104.8 67.0001C104.8 46.1238 87.8764 29.2001 67 29.2001C46.1236 29.2001 29.2 46.1238 29.2 67.0001Z" fill="#E4E9EE"/>
<path d="M109 67.0001C109 76.717 105.631 86.1334 99.4664 93.6446C93.3021 101.156 84.724 106.297 75.1938 108.193C65.6636 110.089 55.7709 108.621 47.2013 104.041C38.6318 99.4603 31.9156 92.0501 28.1971 83.0728C24.4786 74.0956 23.9878 64.1067 26.8085 54.8082C29.6292 45.5097 35.5867 37.4768 43.666 32.0784C51.7454 26.68 61.4466 24.2499 71.1167 25.2024C80.7868 26.1548 89.8276 30.4307 96.6985 37.3016L93.7286 40.2715C87.5448 34.0877 79.4082 30.2393 70.705 29.3821C62.0019 28.525 53.2708 30.712 45.9994 35.5706C38.7281 40.4292 33.3663 47.6587 30.8277 56.0274C28.289 64.396 28.7307 73.386 32.0774 81.4656C35.424 89.5451 41.4686 96.2143 49.1812 100.337C56.8938 104.459 65.7972 105.78 74.3744 104.074C82.9516 102.368 90.6719 97.7403 96.2198 90.9802C101.768 84.22 104.8 75.7453 104.8 67.0001H109Z" fill="#FFA439"/>
<path d="M62.76 73.0001V70.4601H64.68V67.7601H62.76V59.6001H59.28L52.2 68.3601V70.4601H59.76V73.0001H62.76ZM55.98 67.7601V67.5601L59.58 63.2401H59.76V67.7601H55.98ZM69.2469 73.0001V69.4601H65.4869V73.0001H69.2469ZM76.0241 73.2001C79.6641 73.2001 81.7641 71.9201 81.7641 69.3001C81.7641 67.3401 80.4641 66.3801 79.1641 66.0001V65.8801C80.4241 65.6601 81.3241 64.6001 81.3241 63.0201C81.3241 60.9001 79.6641 59.4001 76.0441 59.4001C72.4241 59.4001 70.7641 60.9001 70.7641 63.0201C70.7641 64.6001 71.6641 65.6601 72.9241 65.8801V66.0001C71.6041 66.3801 70.3241 67.3401 70.3241 69.3001C70.3241 71.9201 72.4041 73.2001 76.0241 73.2001ZM76.0441 65.0801C74.3041 65.0801 73.7441 64.6201 73.7441 63.6001C73.7441 62.5801 74.3041 62.1201 76.0441 62.1201C77.7641 62.1201 78.3241 62.5801 78.3241 63.6001C78.3241 64.6201 77.7641 65.0801 76.0441 65.0801ZM76.0441 70.5001C73.8641 70.5001 73.3641 69.9601 73.3641 68.8001C73.3641 67.6401 73.8641 67.1201 76.0441 67.1201C78.2041 67.1201 78.7241 67.6401 78.7241 68.8001C78.7241 69.9601 78.2041 70.5001 76.0441 70.5001Z" fill="#0B0F0E"/>
<path d="M136.442 42.9253L137.908 45.8586C138.108 46.2669 138.642 46.6586 139.092 46.7336L141.75 47.1753C143.45 47.4586 143.85 48.6919 142.625 49.9086L140.558 51.9753C140.208 52.3253 140.017 53.0003 140.125 53.4836L140.717 56.0419C141.183 58.0669 140.108 58.8503 138.317 57.7919L135.825 56.3169C135.375 56.0503 134.633 56.0503 134.175 56.3169L131.683 57.7919C129.9 58.8503 128.817 58.0586 129.283 56.0419L129.875 53.4836C129.983 53.0003 129.792 52.3253 129.442 51.9753L127.375 49.9086C126.158 48.6919 126.55 47.4586 128.25 47.1753L130.908 46.7336C131.35 46.6586 131.883 46.2669 132.083 45.8586L133.55 42.9253C134.35 41.3336 135.65 41.3336 136.442 42.9253Z" fill="#FFA439"/>
<path d="M160.442 42.9253L161.908 45.8586C162.108 46.2669 162.642 46.6586 163.092 46.7336L165.75 47.1753C167.45 47.4586 167.85 48.6919 166.625 49.9086L164.558 51.9753C164.208 52.3253 164.017 53.0003 164.125 53.4836L164.717 56.0419C165.183 58.0669 164.108 58.8503 162.317 57.7919L159.825 56.3169C159.375 56.0503 158.633 56.0503 158.175 56.3169L155.683 57.7919C153.9 58.8503 152.817 58.0586 153.283 56.0419L153.875 53.4836C153.983 53.0003 153.792 52.3253 153.442 51.9753L151.375 49.9086C150.158 48.6919 150.55 47.4586 152.25 47.1753L154.908 46.7336C155.35 46.6586 155.883 46.2669 156.083 45.8586L157.55 42.9253C158.35 41.3336 159.65 41.3336 160.442 42.9253Z" fill="#FFA439"/>
<path d="M184.442 42.9253L185.908 45.8586C186.108 46.2669 186.642 46.6586 187.092 46.7336L189.75 47.1753C191.45 47.4586 191.85 48.6919 190.625 49.9086L188.558 51.9753C188.208 52.3253 188.017 53.0003 188.125 53.4836L188.717 56.0419C189.183 58.0669 188.108 58.8503 186.317 57.7919L183.825 56.3169C183.375 56.0503 182.633 56.0503 182.175 56.3169L179.683 57.7919C177.9 58.8503 176.817 58.0586 177.283 56.0419L177.875 53.4836C177.983 53.0003 177.792 52.3253 177.442 51.9753L175.375 49.9086C174.158 48.6919 174.55 47.4586 176.25 47.1753L178.908 46.7336C179.35 46.6586 179.883 46.2669 180.083 45.8586L181.55 42.9253C182.35 41.3336 183.65 41.3336 184.442 42.9253Z" fill="#FFA439"/>
<path d="M208.442 42.9253L209.908 45.8586C210.108 46.2669 210.642 46.6586 211.092 46.7336L213.75 47.1753C215.45 47.4586 215.85 48.6919 214.625 49.9086L212.558 51.9753C212.208 52.3253 212.017 53.0003 212.125 53.4836L212.717 56.0419C213.183 58.0669 212.108 58.8503 210.317 57.7919L207.825 56.3169C207.375 56.0503 206.633 56.0503 206.175 56.3169L203.683 57.7919C201.9 58.8503 200.817 58.0586 201.283 56.0419L201.875 53.4836C201.983 53.0003 201.792 52.3253 201.442 51.9753L199.375 49.9086C198.158 48.6919 198.55 47.4586 200.25 47.1753L202.908 46.7336C203.35 46.6586 203.883 46.2669 204.083 45.8586L205.55 42.9253C206.35 41.3336 207.65 41.3336 208.442 42.9253Z" fill="#FFA439"/>
<path d="M232.442 42.9253L233.908 45.8586C234.108 46.2669 234.642 46.6586 235.092 46.7336L237.75 47.1753C239.45 47.4586 239.85 48.6919 238.625 49.9086L236.558 51.9753C236.208 52.3253 236.017 53.0003 236.125 53.4836L236.717 56.0419C237.183 58.0669 236.108 58.8503 234.317 57.7919L231.825 56.3169C231.375 56.0503 230.633 56.0503 230.175 56.3169L227.683 57.7919C225.9 58.8503 224.817 58.0586 225.283 56.0419L225.875 53.4836C225.983 53.0003 225.792 52.3253 225.442 51.9753L223.375 49.9086C222.158 48.6919 222.55 47.4586 224.25 47.1753L226.908 46.7336C227.35 46.6586 227.883 46.2669 228.083 45.8586L229.55 42.9253C230.35 41.3336 231.65 41.3336 232.442 42.9253Z" fill="#FFA439"/>
<path d="M127.432 86.0001V79.0881H129.656V78.0961H127.416V77.4081C127.416 76.6081 127.832 76.2241 128.744 76.2241H129.656V75.2801H128.952C127.208 75.2801 126.296 76.1601 126.296 77.7921V78.0961H125.128V79.0881H126.296V86.0001H127.432ZM131.704 86.0001V80.7681C131.704 79.4881 132.216 78.9281 133.448 78.9281C134.584 78.9281 134.968 79.4081 134.968 80.6401V80.9121H136.12V80.4641C136.12 79.1041 135.496 77.9361 133.864 77.9361C132.696 77.9361 131.928 78.5921 131.672 79.3281H131.592V78.0001H130.552V86.0001H131.704ZM140.807 86.1601C143.111 86.1601 144.583 84.4481 144.583 82.0481C144.583 79.6481 143.111 77.9361 140.807 77.9361C138.487 77.9361 136.967 79.6481 136.967 82.0481C136.967 84.4481 138.487 86.1601 140.807 86.1601ZM140.807 85.1361C138.871 85.1361 138.103 84.0161 138.103 82.0481C138.103 80.0801 138.871 78.9761 140.807 78.9761C142.711 78.9761 143.463 80.0801 143.463 82.0481C143.463 84.0161 142.711 85.1361 140.807 85.1361ZM147.126 86.0001V81.4401C147.126 79.6801 147.894 78.9441 149.398 78.9441C150.998 78.9441 151.558 79.6961 151.558 81.4081V86.0001H152.694V81.4401C152.694 79.6801 153.446 78.9441 154.95 78.9441C156.55 78.9441 157.126 79.6961 157.126 81.4081V86.0001H158.262V81.1361C158.262 79.2481 157.334 77.9361 155.302 77.9361C153.67 77.9361 152.854 78.8961 152.534 79.7441H152.486C152.134 78.6241 151.27 77.9361 149.83 77.9361C148.198 77.9361 147.366 78.8961 147.062 79.7281H147.014V78.0961H145.974V86.0001H147.126ZM165.742 86.0001V75.2801H164.798C164.414 76.2401 163.87 76.6081 162.862 76.6081H162.494V77.4721H164.59V86.0001H165.742ZM167.925 87.4721C168.597 87.4721 169.013 87.1361 169.013 86.3841V83.7761H167.605V86.0001H168.229V86.4001C168.229 86.6721 168.117 86.7201 167.893 86.7201H167.573V87.4721H167.925ZM177.916 86.0001V84.9601H171.628C171.612 83.7121 172.476 83.0401 173.708 82.3521L175.324 81.4561C176.7 80.6881 177.836 79.7921 177.836 78.1121C177.836 76.4801 176.748 75.1201 174.268 75.1201C171.468 75.1201 170.268 76.7361 170.268 78.6721V78.9281H171.42V78.7361C171.42 77.0241 171.98 76.1761 174.204 76.1761C176.204 76.1761 176.684 77.0241 176.684 78.1921C176.684 79.2801 176.108 79.8401 174.828 80.5441L173.164 81.4721C171.676 82.3041 170.428 83.2801 170.428 85.2801V86.0001H177.916ZM183.254 86.1601C185.942 86.1601 187.302 84.8321 187.302 82.6081C187.302 80.4161 185.846 79.2161 183.622 79.2161C182.294 79.2161 181.238 79.5841 180.534 80.0961H180.502L180.854 76.3201H186.726V75.2801H179.846L179.414 80.7681L180.422 80.9761C181.126 80.5761 181.91 80.2081 183.334 80.2081C185.302 80.2081 186.166 80.8961 186.166 82.6241C186.166 84.4801 185.366 85.1041 183.286 85.1041C181.302 85.1041 180.31 84.5441 180.31 82.9601V82.8641H179.158V82.9601C179.158 84.9281 180.614 86.1601 183.254 86.1601ZM190.064 86.0001V82.4481H192.048L194.384 86.0001H195.728L192.976 81.8401L195.792 78.0961H194.448L192.048 81.4081H190.064V75.2801H188.912V86.0001H190.064ZM200.986 86.0001V80.7681C200.986 79.4881 201.498 78.9281 202.73 78.9281C203.866 78.9281 204.25 79.4081 204.25 80.6401V80.9121H205.402V80.4641C205.402 79.1041 204.778 77.9361 203.146 77.9361C201.978 77.9361 201.21 78.5921 200.954 79.3281H200.874V78.0001H199.834V86.0001H200.986ZM209.944 86.1601C211.96 86.1601 213.336 84.9921 213.336 83.4721V83.3601H212.2V83.4561C212.2 84.4161 211.56 85.1361 209.96 85.1361C208.072 85.1361 207.384 84.1121 207.336 82.3681H213.32C213.368 82.1441 213.4 81.7921 213.4 81.4241C213.4 79.0881 211.832 77.9361 209.928 77.9361C207.672 77.9361 206.248 79.6481 206.248 82.0481C206.248 84.4481 207.512 86.1601 209.944 86.1601ZM209.896 78.9281C211.448 78.9281 212.376 79.6641 212.312 81.5361H207.336C207.432 79.9361 208.136 78.9281 209.896 78.9281ZM218.44 86.0001L221.672 78.0961H220.44L217.784 84.8801H217.704L215.032 78.0961H213.784L217.016 86.0001H218.44ZM223.625 77.0401V75.2801H222.489V77.0401H223.625ZM223.625 86.0001V78.0001H222.489V86.0001H223.625ZM228.663 86.1601C230.679 86.1601 232.055 84.9921 232.055 83.4721V83.3601H230.919V83.4561C230.919 84.4161 230.279 85.1361 228.679 85.1361C226.791 85.1361 226.103 84.1121 226.055 82.3681H232.039C232.087 82.1441 232.119 81.7921 232.119 81.4241C232.119 79.0881 230.551 77.9361 228.647 77.9361C226.391 77.9361 224.967 79.6481 224.967 82.0481C224.967 84.4481 226.231 86.1601 228.663 86.1601ZM228.615 78.9281C230.167 78.9281 231.095 79.6641 231.031 81.5361H226.055C226.151 79.9361 226.855 78.9281 228.615 78.9281ZM236.119 86.0001L237.911 81.0081L238.503 79.1361H238.599L239.191 81.0081L240.967 86.0001H242.471L244.503 78.0961H243.319L242.071 83.2481L241.751 84.9601H241.655L241.159 83.2481L239.319 78.0961H237.799L235.991 83.2481L235.463 84.9601H235.367L235.047 83.2481L233.799 78.0961H232.583L234.615 86.0001H236.119ZM248.674 86.1601C250.498 86.1601 251.65 85.3281 251.65 83.9201C251.65 82.6081 250.738 82.0001 249.362 81.7441L248.018 81.4881C246.834 81.2641 246.434 80.9921 246.434 80.1921C246.434 79.3921 246.882 78.9281 248.322 78.9281C250.018 78.9281 250.386 79.6481 250.386 80.5921V80.7201H251.49V80.6401C251.49 78.8641 250.162 77.9361 248.354 77.9361C246.482 77.9361 245.33 78.8481 245.33 80.2081C245.33 81.6001 246.258 82.1921 247.538 82.4321L248.85 82.6561C250.05 82.8801 250.546 83.1681 250.546 83.9681C250.546 84.7681 250.162 85.1841 248.69 85.1841C246.898 85.1841 246.45 84.6561 246.45 83.5681V83.3761H245.33V83.4081C245.33 85.2481 246.514 86.1601 248.674 86.1601Z" fill="#0B0F0E"/>
<path d="M378.088 43.1601C381.048 43.1601 382.376 41.7201 382.376 39.4961C382.376 37.3361 380.984 36.0561 378.696 36.0561C377.288 36.0561 376.28 36.4881 375.72 36.9521H375.672L375.928 33.8321H381.8V32.2801H374.408L374.04 37.9761L375.56 38.2161C376.088 37.9121 376.856 37.5441 378.168 37.5441C379.976 37.5441 380.664 38.1041 380.664 39.5441C380.664 41.0481 380.04 41.5761 378.152 41.5761C376.376 41.5761 375.576 41.1601 375.576 39.9601V39.8641H373.864V39.9601C373.864 41.9281 375.304 43.1601 378.088 43.1601ZM386.016 43.0001V40.5201H383.824V43.0001H386.016ZM392.019 43.1601C394.899 43.1601 396.659 41.0321 396.659 37.6401C396.659 34.2481 394.899 32.1201 392.019 32.1201C389.139 32.1201 387.395 34.2481 387.395 37.6401C387.395 41.0321 389.139 43.1601 392.019 43.1601ZM392.019 41.4961C390.115 41.4961 389.235 40.4721 389.235 37.6401C389.235 34.8081 390.115 33.7841 392.019 33.7841C393.923 33.7841 394.819 34.8081 394.819 37.6401C394.819 40.4721 393.923 41.4961 392.019 41.4961Z" fill="#0B0F0E"/>
<path d="M413.442 30.9253L414.908 33.8586C415.108 34.2669 415.642 34.6586 416.092 34.7336L418.75 35.1753C420.45 35.4586 420.85 36.6919 419.625 37.9086L417.558 39.9753C417.208 40.3253 417.017 41.0003 417.125 41.4836L417.717 44.0419C418.183 46.0669 417.108 46.8503 415.317 45.7919L412.825 44.3169C412.375 44.0503 411.633 44.0503 411.175 44.3169L408.683 45.7919C406.9 46.8503 405.817 46.0586 406.283 44.0419L406.875 41.4836C406.983 41.0003 406.792 40.3253 406.442 39.9753L404.375 37.9086C403.158 36.6919 403.55 35.4586 405.25 35.1753L407.908 34.7336C408.35 34.6586 408.883 34.2669 409.083 33.8586L410.55 30.9253C411.35 29.3336 412.65 29.3336 413.442 30.9253Z" fill="#FFA439"/>
<rect x="445.5" y="34.0001" width="669" height="8" rx="4" fill="#E4E9EE"/>
<rect x="445.5" y="34.0001" width="562" height="8" rx="4" fill="#1D9E34"/>
<path d="M1146.85 43.0001V41.4481H1140.75C1140.75 40.5681 1141.58 40.0561 1142.67 39.4961L1144.24 38.6961C1145.62 37.9921 1146.82 37.0481 1146.82 35.2881C1146.82 33.5121 1145.71 32.1201 1143.07 32.1201C1140.11 32.1201 1138.86 33.7841 1138.86 35.7841V36.0401H1140.59V35.8161C1140.59 34.3441 1140.99 33.7041 1142.94 33.7041C1144.72 33.7041 1145.09 34.3601 1145.09 35.3521C1145.09 36.2641 1144.62 36.7441 1143.47 37.3521L1141.82 38.2001C1140.32 38.9681 1138.94 39.8961 1138.94 41.9281V43.0001H1146.85ZM1152.54 43.1601C1155.29 43.1601 1156.94 42.1201 1156.94 40.0721C1156.94 38.5521 1155.96 37.7201 1154.79 37.3841V37.3201C1155.91 37.1281 1156.6 36.2161 1156.6 34.9841C1156.6 33.3201 1155.24 32.1201 1152.54 32.1201C1149.83 32.1201 1148.47 33.3201 1148.47 34.9841C1148.47 36.2161 1149.16 37.1281 1150.3 37.3201V37.3841C1149.11 37.7201 1148.15 38.5521 1148.15 40.0721C1148.15 42.1201 1149.79 43.1601 1152.54 43.1601ZM1152.54 36.8401C1150.79 36.8401 1150.2 36.3281 1150.2 35.2561C1150.2 34.2481 1150.75 33.7041 1152.54 33.7041C1154.35 33.7041 1154.87 34.2481 1154.87 35.2561C1154.87 36.3281 1154.3 36.8401 1152.54 36.8401ZM1152.54 41.5761C1150.44 41.5761 1149.9 40.9841 1149.9 39.8001C1149.9 38.6321 1150.46 38.0241 1152.54 38.0241C1154.62 38.0241 1155.19 38.6321 1155.19 39.8001C1155.19 40.9841 1154.65 41.5761 1152.54 41.5761ZM1166.3 43.0001V41.4481H1160.21C1160.21 40.5681 1161.04 40.0561 1162.13 39.4961L1163.69 38.6961C1165.07 37.9921 1166.27 37.0481 1166.27 35.2881C1166.27 33.5121 1165.17 32.1201 1162.53 32.1201C1159.57 32.1201 1158.32 33.7841 1158.32 35.7841V36.0401H1160.05V35.8161C1160.05 34.3441 1160.45 33.7041 1162.4 33.7041C1164.17 33.7041 1164.54 34.3601 1164.54 35.3521C1164.54 36.2641 1164.08 36.7441 1162.93 37.3521L1161.28 38.2001C1159.77 38.9681 1158.4 39.8961 1158.4 41.9281V43.0001H1166.3ZM1171.96 43.1601C1174.44 43.1601 1176.1 42.1521 1176.1 40.0881C1176.1 38.5521 1175.21 37.5921 1173.73 37.3841V37.3201C1175.09 37.1281 1175.72 36.2161 1175.72 34.9841C1175.72 33.1121 1174.28 32.1201 1171.86 32.1201C1169.17 32.1201 1167.73 33.5121 1167.73 35.5601V35.7041H1169.43V35.5761C1169.43 34.2321 1169.99 33.7041 1171.85 33.7041C1173.35 33.7041 1173.99 34.1361 1173.99 35.2561C1173.99 36.3761 1173.45 36.7281 1172.04 36.7281H1170.13V38.1681H1172.28C1173.77 38.1681 1174.36 38.5681 1174.36 39.9121C1174.36 41.1601 1173.69 41.5761 1171.99 41.5761C1169.88 41.5761 1169.43 41.0481 1169.43 39.7041V39.4641H1167.73V39.7201C1167.73 41.7681 1168.9 43.1601 1171.96 43.1601Z" fill="#0B0F0E"/>
<path d="M381.112 81.0001V78.7761H382.776V77.2241H381.112V70.2801H379.112L373.208 77.5761V78.7761H379.4V81.0001H381.112ZM375.416 77.2241V77.0961L379.272 72.4081H379.4V77.2241H375.416ZM385.782 81.0001V78.5201H383.59V81.0001H385.782ZM391.785 81.1601C394.665 81.1601 396.425 79.0321 396.425 75.6401C396.425 72.2481 394.665 70.1201 391.785 70.1201C388.905 70.1201 387.161 72.2481 387.161 75.6401C387.161 79.0321 388.905 81.1601 391.785 81.1601ZM391.785 79.4961C389.881 79.4961 389.001 78.4721 389.001 75.6401C389.001 72.8081 389.881 71.7841 391.785 71.7841C393.689 71.7841 394.585 72.8081 394.585 75.6401C394.585 78.4721 393.689 79.4961 391.785 79.4961Z" fill="#0B0F0E"/>
<path d="M413.442 68.9253L414.908 71.8586C415.108 72.2669 415.642 72.6586 416.092 72.7336L418.75 73.1753C420.45 73.4586 420.85 74.6919 419.625 75.9086L417.558 77.9753C417.208 78.3253 417.017 79.0003 417.125 79.4836L417.717 82.0419C418.183 84.0669 417.108 84.8503 415.317 83.7919L412.825 82.3169C412.375 82.0503 411.633 82.0503 411.175 82.3169L408.683 83.7919C406.9 84.8503 405.817 84.0586 406.283 82.0419L406.875 79.4836C406.983 79.0003 406.792 78.3253 406.442 77.9753L404.375 75.9086C403.158 74.6919 403.55 73.4586 405.25 73.1753L407.908 72.7336C408.35 72.6586 408.883 72.2669 409.083 71.8586L410.55 68.9253C411.35 67.3336 412.65 67.3336 413.442 68.9253Z" fill="#FFA439"/>
<rect x="445.5" y="72.0001" width="669" height="8" rx="4" fill="#E4E9EE"/>
<rect x="445.5" y="72.0001" width="318" height="8" rx="4" fill="#1D9E34"/>
<path d="M1142.86 81.1601C1145.34 81.1601 1147.01 80.1521 1147.01 78.0881C1147.01 76.5521 1146.11 75.5921 1144.64 75.3841V75.3201C1146 75.1281 1146.62 74.2161 1146.62 72.9841C1146.62 71.1121 1145.18 70.1201 1142.77 70.1201C1140.08 70.1201 1138.64 71.5121 1138.64 73.5601V73.7041H1140.34V73.5761C1140.34 72.2321 1140.9 71.7041 1142.75 71.7041C1144.26 71.7041 1144.9 72.1361 1144.9 73.2561C1144.9 74.3761 1144.35 74.7281 1142.94 74.7281H1141.04V76.1681H1143.18C1144.67 76.1681 1145.26 76.5681 1145.26 77.9121C1145.26 79.1601 1144.59 79.5761 1142.9 79.5761C1140.78 79.5761 1140.34 79.0481 1140.34 77.7041V77.4641H1138.64V77.7201C1138.64 79.7681 1139.81 81.1601 1142.86 81.1601ZM1152.62 81.1601C1155.37 81.1601 1157.02 80.1201 1157.02 78.0721C1157.02 76.5521 1156.04 75.7201 1154.87 75.3841V75.3201C1155.99 75.1281 1156.68 74.2161 1156.68 72.9841C1156.68 71.3201 1155.32 70.1201 1152.62 70.1201C1149.91 70.1201 1148.55 71.3201 1148.55 72.9841C1148.55 74.2161 1149.24 75.1281 1150.38 75.3201V75.3841C1149.19 75.7201 1148.23 76.5521 1148.23 78.0721C1148.23 80.1201 1149.86 81.1601 1152.62 81.1601ZM1152.62 74.8401C1150.87 74.8401 1150.28 74.3281 1150.28 73.2561C1150.28 72.2481 1150.82 71.7041 1152.62 71.7041C1154.42 71.7041 1154.95 72.2481 1154.95 73.2561C1154.95 74.3281 1154.38 74.8401 1152.62 74.8401ZM1152.62 79.5761C1150.52 79.5761 1149.98 78.9841 1149.98 77.8001C1149.98 76.6321 1150.54 76.0241 1152.62 76.0241C1154.7 76.0241 1155.27 76.6321 1155.27 77.8001C1155.27 78.9841 1154.73 79.5761 1152.62 79.5761Z" fill="#0B0F0E"/>
<path d="M377.864 119.16C380.344 119.16 382.008 118.152 382.008 116.088C382.008 114.552 381.112 113.592 379.64 113.384V113.32C381 113.128 381.624 112.216 381.624 110.984C381.624 109.112 380.184 108.12 377.768 108.12C375.08 108.12 373.64 109.512 373.64 111.56V111.704H375.336V111.576C375.336 110.232 375.896 109.704 377.752 109.704C379.256 109.704 379.896 110.136 379.896 111.256C379.896 112.376 379.352 112.728 377.944 112.728H376.04V114.168H378.184C379.672 114.168 380.264 114.568 380.264 115.912C380.264 117.16 379.592 117.576 377.896 117.576C375.784 117.576 375.336 117.048 375.336 115.704V115.464H373.64V115.72C373.64 117.768 374.808 119.16 377.864 119.16ZM385.329 119V116.52H383.137V119H385.329ZM391.332 119.16C394.212 119.16 395.972 117.032 395.972 113.64C395.972 110.248 394.212 108.12 391.332 108.12C388.452 108.12 386.708 110.248 386.708 113.64C386.708 117.032 388.452 119.16 391.332 119.16ZM391.332 117.496C389.428 117.496 388.548 116.472 388.548 113.64C388.548 110.808 389.428 109.784 391.332 109.784C393.236 109.784 394.132 110.808 394.132 113.64C394.132 116.472 393.236 117.496 391.332 117.496Z" fill="#0B0F0E"/>
<path d="M412.442 106.925L413.908 109.859C414.108 110.267 414.642 110.659 415.092 110.734L417.75 111.175C419.45 111.459 419.85 112.692 418.625 113.909L416.558 115.975C416.208 116.325 416.017 117 416.125 117.484L416.717 120.042C417.183 122.067 416.108 122.85 414.317 121.792L411.825 120.317C411.375 120.05 410.633 120.05 410.175 120.317L407.683 121.792C405.9 122.85 404.817 122.059 405.283 120.042L405.875 117.484C405.983 117 405.792 116.325 405.442 115.975L403.375 113.909C402.158 112.692 402.55 111.459 404.25 111.175L406.908 110.734C407.35 110.659 407.883 110.267 408.083 109.859L409.55 106.925C410.35 105.334 411.65 105.334 412.442 106.925Z" fill="#FFA439"/>
<rect x="445" y="110" width="669" height="8" rx="4" fill="#E4E9EE"/>
<rect x="445" y="110" width="100" height="8" rx="4" fill="#1D9E34"/>
<path d="M1146.11 119V116.776H1147.78V115.224H1146.11V108.28H1144.11L1138.21 115.576V116.776H1144.4V119H1146.11ZM1140.42 115.224V115.096L1144.27 110.408H1144.4V115.224H1140.42Z" fill="#0B0F0E"/>
<path d="M381.848 157V155.448H375.752C375.752 154.568 376.584 154.056 377.672 153.496L379.24 152.696C380.616 151.992 381.816 151.048 381.816 149.288C381.816 147.512 380.712 146.12 378.072 146.12C375.112 146.12 373.864 147.784 373.864 149.784V150.04H375.592V149.816C375.592 148.344 375.992 147.704 377.944 147.704C379.72 147.704 380.088 148.36 380.088 149.352C380.088 150.264 379.624 150.744 378.472 151.352L376.824 152.2C375.32 152.968 373.944 153.896 373.944 155.928V157H381.848ZM385.422 157V154.52H383.23V157H385.422ZM391.426 157.16C394.306 157.16 396.066 155.032 396.066 151.64C396.066 148.248 394.306 146.12 391.426 146.12C388.546 146.12 386.802 148.248 386.802 151.64C386.802 155.032 388.546 157.16 391.426 157.16ZM391.426 155.496C389.522 155.496 388.642 154.472 388.642 151.64C388.642 148.808 389.522 147.784 391.426 147.784C393.33 147.784 394.226 148.808 394.226 151.64C394.226 154.472 393.33 155.496 391.426 155.496Z" fill="#0B0F0E"/>
<path d="M412.442 144.925L413.908 147.859C414.108 148.267 414.642 148.659 415.092 148.734L417.75 149.175C419.45 149.459 419.85 150.692 418.625 151.909L416.558 153.975C416.208 154.325 416.017 155 416.125 155.484L416.717 158.042C417.183 160.067 416.108 160.85 414.317 159.792L411.825 158.317C411.375 158.05 410.633 158.05 410.175 158.317L407.683 159.792C405.9 160.85 404.817 160.059 405.283 158.042L405.875 155.484C405.983 155 405.792 154.325 405.442 153.975L403.375 151.909C402.158 150.692 402.55 149.459 404.25 149.175L406.908 148.734C407.35 148.659 407.883 148.267 408.083 147.859L409.55 144.925C410.35 143.334 411.65 143.334 412.442 144.925Z" fill="#FFA439"/>
<rect x="445" y="148" width="669" height="8" rx="4" fill="#E4E9EE"/>
<path d="M1143.49 157.16C1146.37 157.16 1148.13 155.032 1148.13 151.64C1148.13 148.248 1146.37 146.12 1143.49 146.12C1140.61 146.12 1138.86 148.248 1138.86 151.64C1138.86 155.032 1140.61 157.16 1143.49 157.16ZM1143.49 155.496C1141.58 155.496 1140.7 154.472 1140.7 151.64C1140.7 148.808 1141.58 147.784 1143.49 147.784C1145.39 147.784 1146.29 148.808 1146.29 151.64C1146.29 154.472 1145.39 155.496 1143.49 155.496Z" fill="#0B0F0E"/>
<path d="M377.352 195V184.28H375.832C375.384 185.24 374.792 185.608 373.784 185.608H373.368V186.84H375.624V195H377.352ZM381.329 195V192.52H379.137V195H381.329ZM387.332 195.16C390.212 195.16 391.972 193.032 391.972 189.64C391.972 186.248 390.212 184.12 387.332 184.12C384.452 184.12 382.708 186.248 382.708 189.64C382.708 193.032 384.452 195.16 387.332 195.16ZM387.332 193.496C385.428 193.496 384.548 192.472 384.548 189.64C384.548 186.808 385.428 185.784 387.332 185.784C389.236 185.784 390.132 186.808 390.132 189.64C390.132 192.472 389.236 193.496 387.332 193.496Z" fill="#0B0F0E"/>
<path d="M408.442 182.925L409.908 185.859C410.108 186.267 410.642 186.659 411.092 186.734L413.75 187.175C415.45 187.459 415.85 188.692 414.625 189.909L412.558 191.975C412.208 192.325 412.017 193 412.125 193.484L412.717 196.042C413.183 198.067 412.108 198.85 410.317 197.792L407.825 196.317C407.375 196.05 406.633 196.05 406.175 196.317L403.683 197.792C401.9 198.85 400.817 198.059 401.283 196.042L401.875 193.484C401.983 193 401.792 192.325 401.442 191.975L399.375 189.909C398.158 188.692 398.55 187.459 400.25 187.175L402.908 186.734C403.35 186.659 403.883 186.267 404.083 185.859L405.55 182.925C406.35 181.334 407.65 181.334 408.442 182.925Z" fill="#FFA439"/>
<rect x="443" y="186" width="669" height="8" rx="4" fill="#E4E9EE"/>
<path d="M1143.49 195.16C1146.37 195.16 1148.13 193.032 1148.13 189.64C1148.13 186.248 1146.37 184.12 1143.49 184.12C1140.61 184.12 1138.86 186.248 1138.86 189.64C1138.86 193.032 1140.61 195.16 1143.49 195.16ZM1143.49 193.496C1141.58 193.496 1140.7 192.472 1140.7 189.64C1140.7 186.808 1141.58 185.784 1143.49 185.784C1145.39 185.784 1146.29 186.808 1146.29 189.64C1146.29 192.472 1145.39 193.496 1143.49 193.496Z" fill="#0B0F0E"/>
</svg>
