<svg width="329" height="255" viewBox="0 0 329 255" fill="none" xmlns="http://www.w3.org/2000/svg">
<rect x="1" y="1" width="327" height="253" rx="12" stroke="#E4E9EE"/>
<path d="M81 49C81 66.6731 66.6731 81 49 81C31.3269 81 17 66.6731 17 49C17 31.3269 31.3269 17 49 17C66.6731 17 81 31.3269 81 49ZM21.48 49C21.48 64.1989 33.8011 76.52 49 76.52C64.1989 76.52 76.52 64.1989 76.52 49C76.52 33.8011 64.1989 21.48 49 21.48C33.8011 21.48 21.48 33.8011 21.48 49Z" fill="#E4E9EE"/>
<path d="M81 49C81 56.4034 78.433 63.5777 73.7363 69.3006C69.0397 75.0235 62.504 78.9408 55.2429 80.3851C47.9818 81.8295 40.4445 80.7114 33.9153 77.2215C27.3861 73.7316 22.269 68.0857 19.4359 61.2459C16.6027 54.4061 16.2288 46.7955 18.3779 39.7109C20.527 32.6263 25.0661 26.5061 31.2217 22.393C37.3774 18.2799 44.7688 16.4284 52.1365 17.1541C59.5043 17.8797 66.3924 21.1376 71.6274 26.3726L68.4596 29.5404C63.9575 25.0383 58.0337 22.2366 51.6974 21.6125C45.3612 20.9885 39.0046 22.5807 33.7107 26.118C28.4168 29.6552 24.5132 34.9186 22.665 41.0114C20.8168 47.1041 21.1383 53.6492 23.5748 59.5314C26.0113 65.4137 30.4121 70.2691 36.0272 73.2705C41.6423 76.2718 48.1243 77.2333 54.3689 75.9912C60.6134 74.7491 66.2341 71.3802 70.2732 66.4585C74.3124 61.5368 76.52 55.3669 76.52 49H81Z" fill="#FFA439"/>
<path d="M44.684 54V51.714H46.412V49.284H44.684V41.94H41.552L35.18 49.824V51.714H41.984V54H44.684ZM38.582 49.284V49.104L41.822 45.216H41.984V49.284H38.582ZM50.5022 54V50.814H47.1182V54H50.5022ZM56.5817 54.18C59.8577 54.18 61.7477 53.028 61.7477 50.67C61.7477 48.906 60.5777 48.042 59.4077 47.7V47.592C60.5417 47.394 61.3517 46.44 61.3517 45.018C61.3517 43.11 59.8577 41.76 56.5997 41.76C53.3417 41.76 51.8477 43.11 51.8477 45.018C51.8477 46.44 52.6577 47.394 53.7917 47.592V47.7C52.6037 48.042 51.4517 48.906 51.4517 50.67C51.4517 53.028 53.3237 54.18 56.5817 54.18ZM56.5997 46.872C55.0337 46.872 54.5297 46.458 54.5297 45.54C54.5297 44.622 55.0337 44.208 56.5997 44.208C58.1477 44.208 58.6517 44.622 58.6517 45.54C58.6517 46.458 58.1477 46.872 56.5997 46.872ZM56.5997 51.75C54.6377 51.75 54.1877 51.264 54.1877 50.22C54.1877 49.176 54.6377 48.708 56.5997 48.708C58.5437 48.708 59.0117 49.176 59.0117 50.22C59.0117 51.264 58.5437 51.75 56.5997 51.75Z" fill="#0B0F0E"/>
<path d="M108.442 30.4251L109.909 33.3584C110.109 33.7668 110.642 34.1584 111.092 34.2334L113.75 34.6751C115.45 34.9584 115.85 36.1918 114.625 37.4084L112.559 39.4751C112.209 39.8251 112.017 40.5001 112.125 40.9834L112.717 43.5418C113.184 45.5668 112.109 46.3501 110.317 45.2918L107.825 43.8168C107.375 43.5501 106.634 43.5501 106.175 43.8168L103.684 45.2918C101.9 46.3501 100.817 45.5585 101.284 43.5418L101.875 40.9834C101.984 40.5001 101.792 39.8251 101.442 39.4751L99.3754 37.4084C98.1587 36.1918 98.5504 34.9584 100.25 34.6751L102.909 34.2334C103.35 34.1584 103.884 33.7668 104.084 33.3584L105.55 30.4251C106.35 28.8334 107.65 28.8334 108.442 30.4251Z" fill="#FFA439"/>
<path d="M132.442 30.4251L133.909 33.3584C134.109 33.7668 134.642 34.1584 135.092 34.2334L137.75 34.6751C139.45 34.9584 139.85 36.1918 138.625 37.4084L136.559 39.4751C136.209 39.8251 136.017 40.5001 136.125 40.9834L136.717 43.5418C137.184 45.5668 136.109 46.3501 134.317 45.2918L131.825 43.8168C131.375 43.5501 130.634 43.5501 130.175 43.8168L127.684 45.2918C125.9 46.3501 124.817 45.5585 125.284 43.5418L125.875 40.9834C125.984 40.5001 125.792 39.8251 125.442 39.4751L123.375 37.4084C122.159 36.1918 122.55 34.9584 124.25 34.6751L126.909 34.2334C127.35 34.1584 127.884 33.7668 128.084 33.3584L129.55 30.4251C130.35 28.8334 131.65 28.8334 132.442 30.4251Z" fill="#FFA439"/>
<path d="M156.442 30.4251L157.909 33.3584C158.109 33.7668 158.642 34.1584 159.092 34.2334L161.75 34.6751C163.45 34.9584 163.85 36.1918 162.625 37.4084L160.559 39.4751C160.209 39.8251 160.017 40.5001 160.125 40.9834L160.717 43.5418C161.184 45.5668 160.109 46.3501 158.317 45.2918L155.825 43.8168C155.375 43.5501 154.634 43.5501 154.175 43.8168L151.684 45.2918C149.9 46.3501 148.817 45.5585 149.284 43.5418L149.875 40.9834C149.984 40.5001 149.792 39.8251 149.442 39.4751L147.375 37.4084C146.159 36.1918 146.55 34.9584 148.25 34.6751L150.909 34.2334C151.35 34.1584 151.884 33.7668 152.084 33.3584L153.55 30.4251C154.35 28.8334 155.65 28.8334 156.442 30.4251Z" fill="#FFA439"/>
<path d="M180.442 30.4251L181.909 33.3584C182.109 33.7668 182.642 34.1584 183.092 34.2334L185.75 34.6751C187.45 34.9584 187.85 36.1918 186.625 37.4084L184.559 39.4751C184.209 39.8251 184.017 40.5001 184.125 40.9834L184.717 43.5418C185.184 45.5668 184.109 46.3501 182.317 45.2918L179.825 43.8168C179.375 43.5501 178.634 43.5501 178.175 43.8168L175.684 45.2918C173.9 46.3501 172.817 45.5585 173.284 43.5418L173.875 40.9834C173.984 40.5001 173.792 39.8251 173.442 39.4751L171.375 37.4084C170.159 36.1918 170.55 34.9584 172.25 34.6751L174.909 34.2334C175.35 34.1584 175.884 33.7668 176.084 33.3584L177.55 30.4251C178.35 28.8334 179.65 28.8334 180.442 30.4251Z" fill="#FFA439"/>
<path d="M204.442 30.4251L205.909 33.3584C206.109 33.7668 206.642 34.1584 207.092 34.2334L209.75 34.6751C211.45 34.9584 211.85 36.1918 210.625 37.4084L208.559 39.4751C208.209 39.8251 208.017 40.5001 208.125 40.9834L208.717 43.5418C209.184 45.5668 208.109 46.3501 206.317 45.2918L203.825 43.8168C203.375 43.5501 202.634 43.5501 202.175 43.8168L199.684 45.2918C197.9 46.3501 196.817 45.5585 197.284 43.5418L197.875 40.9834C197.984 40.5001 197.792 39.8251 197.442 39.4751L195.375 37.4084C194.159 36.1918 194.55 34.9584 196.25 34.6751L198.909 34.2334C199.35 34.1584 199.884 33.7668 200.084 33.3584L201.55 30.4251C202.35 28.8334 203.65 28.8334 204.442 30.4251Z" fill="#FFA439"/>
<path d="M99.244 64.5V59.616H100.768V58.536H99.208V58.212C99.208 57.708 99.472 57.492 100.048 57.492H100.768V56.46H100.288C98.776 56.46 97.972 57.192 97.948 58.536H97.072V59.616H97.948V64.5H99.244ZM102.752 64.5V60.612C102.752 59.82 103.04 59.52 103.82 59.52C104.576 59.52 104.804 59.808 104.804 60.6V60.84H106.1V60.444C106.1 59.328 105.62 58.416 104.372 58.416C103.496 58.416 102.944 58.896 102.704 59.448H102.644V58.5H101.456V64.5H102.752ZM109.665 64.62C111.489 64.62 112.593 63.372 112.593 61.512C112.593 59.664 111.489 58.416 109.665 58.416C107.829 58.416 106.689 59.664 106.689 61.512C106.689 63.372 107.829 64.62 109.665 64.62ZM109.665 63.468C108.405 63.468 107.961 62.856 107.961 61.512C107.961 60.18 108.405 59.568 109.665 59.568C110.913 59.568 111.345 60.18 111.345 61.512C111.345 62.856 110.913 63.468 109.665 63.468ZM114.858 64.5V61.02C114.858 59.94 115.314 59.532 116.298 59.532C117.378 59.532 117.702 59.976 117.702 61.044V64.5H118.998V61.032C118.998 59.94 119.454 59.532 120.438 59.532C121.518 59.532 121.842 59.976 121.842 61.044V64.5H123.138V60.756C123.138 59.4 122.454 58.416 120.918 58.416C119.742 58.416 119.13 59.028 118.854 59.652H118.818C118.53 58.896 117.882 58.416 116.838 58.416C115.698 58.416 115.074 59.016 114.798 59.652H114.75V58.536H113.562V64.5H114.858ZM129.268 64.5V56.46H128.128C127.792 57.18 127.348 57.456 126.592 57.456H126.28V58.38H127.972V64.5H129.268ZM131.062 65.916C131.818 65.916 132.25 65.532 132.25 64.728V62.64H130.606V64.5H131.338V64.752C131.338 65.016 131.23 65.064 131.026 65.064H130.63V65.916H131.062ZM139.273 64.5V63.336H134.701C134.701 62.676 135.325 62.292 136.141 61.872L137.317 61.272C138.349 60.744 139.249 60.036 139.249 58.716C139.249 57.384 138.421 56.34 136.441 56.34C134.221 56.34 133.285 57.588 133.285 59.088V59.28H134.581V59.112C134.581 58.008 134.881 57.528 136.345 57.528C137.677 57.528 137.953 58.02 137.953 58.764C137.953 59.448 137.605 59.808 136.741 60.264L135.505 60.9C134.377 61.476 133.345 62.172 133.345 63.696V64.5H139.273ZM143.589 64.62C145.809 64.62 146.805 63.54 146.805 61.872C146.805 60.252 145.761 59.292 144.045 59.292C142.989 59.292 142.233 59.616 141.813 59.964H141.777L141.969 57.624H146.373V56.46H140.829L140.553 60.732L141.693 60.912C142.089 60.684 142.665 60.408 143.649 60.408C145.005 60.408 145.521 60.828 145.521 61.908C145.521 63.036 145.053 63.432 143.637 63.432C142.305 63.432 141.705 63.12 141.705 62.22V62.148H140.421V62.22C140.421 63.696 141.501 64.62 143.589 64.62ZM149.334 64.5V62.064H150.522L152.082 64.5H153.594L151.554 61.356L153.63 58.536H152.106L150.51 60.9H149.334V56.46H148.038V64.5H149.334ZM157.901 64.5V60.612C157.901 59.82 158.189 59.52 158.969 59.52C159.725 59.52 159.953 59.808 159.953 60.6V60.84H161.249V60.444C161.249 59.328 160.769 58.416 159.521 58.416C158.645 58.416 158.093 58.896 157.853 59.448H157.793V58.5H156.605V64.5H157.901ZM164.729 64.62C166.337 64.62 167.405 63.828 167.405 62.604V62.496H166.121V62.592C166.121 63.132 165.737 63.468 164.741 63.468C163.493 63.468 163.097 62.916 163.049 61.824H167.381C167.417 61.644 167.453 61.32 167.453 61.008C167.453 59.376 166.325 58.416 164.717 58.416C162.941 58.416 161.837 59.664 161.837 61.512C161.837 63.372 162.761 64.62 164.729 64.62ZM164.693 59.508C165.713 59.508 166.265 59.94 166.217 60.96H163.061C163.133 60.036 163.565 59.508 164.693 59.508ZM171.697 64.5L174.097 58.536H172.693L170.941 63.264H170.857L169.117 58.536H167.677L170.065 64.5H171.697ZM175.875 57.78V56.46H174.579L174.591 57.78H175.875ZM175.887 64.5V58.5H174.591V64.5H175.887ZM179.671 64.62C181.279 64.62 182.347 63.828 182.347 62.604V62.496H181.063V62.592C181.063 63.132 180.679 63.468 179.683 63.468C178.435 63.468 178.039 62.916 177.991 61.824H182.323C182.359 61.644 182.395 61.32 182.395 61.008C182.395 59.376 181.267 58.416 179.659 58.416C177.883 58.416 176.779 59.664 176.779 61.512C176.779 63.372 177.703 64.62 179.671 64.62ZM179.635 59.508C180.655 59.508 181.207 59.94 181.159 60.96H178.003C178.075 60.036 178.507 59.508 179.635 59.508ZM185.847 64.5L186.927 61.176L187.311 59.676H187.407L187.803 61.176L188.871 64.5H190.551L192.027 58.536H190.683L189.987 61.86L189.747 63.42H189.651L189.279 61.86L188.223 58.536H186.543L185.499 61.848L185.103 63.42H185.007L184.767 61.848L184.083 58.536H182.679L184.155 64.5H185.847ZM195.195 64.62C196.707 64.62 197.583 63.972 197.583 62.868C197.583 61.884 196.983 61.368 195.831 61.14L194.823 60.948C193.983 60.78 193.767 60.648 193.767 60.192C193.767 59.736 193.995 59.484 194.943 59.484C196.011 59.484 196.203 59.88 196.203 60.432V60.576H197.439V60.468C197.439 59.112 196.383 58.416 194.979 58.416C193.419 58.416 192.531 59.136 192.531 60.216C192.531 61.296 193.203 61.776 194.271 61.968L195.195 62.124C196.071 62.28 196.359 62.424 196.359 62.904C196.359 63.348 196.179 63.564 195.219 63.564C194.079 63.564 193.791 63.324 193.791 62.676V62.46H192.543V62.484C192.543 63.936 193.455 64.62 195.195 64.62Z" fill="#0B0F0E"/>
<path d="M20.816 117.12C23.036 117.12 24.032 116.04 24.032 114.372C24.032 112.752 22.988 111.792 21.272 111.792C20.216 111.792 19.46 112.116 19.04 112.464H19.004L19.196 110.124H23.6V108.96H18.056L17.78 113.232L18.92 113.412C19.316 113.184 19.892 112.908 20.876 112.908C22.232 112.908 22.748 113.328 22.748 114.408C22.748 115.536 22.28 115.932 20.864 115.932C19.532 115.932 18.932 115.62 18.932 114.72V114.648H17.648V114.72C17.648 116.196 18.728 117.12 20.816 117.12ZM26.7621 117V115.14H25.1181V117H26.7621ZM31.2644 117.12C33.4244 117.12 34.7444 115.524 34.7444 112.98C34.7444 110.436 33.4244 108.84 31.2644 108.84C29.1044 108.84 27.7964 110.436 27.7964 112.98C27.7964 115.524 29.1044 117.12 31.2644 117.12ZM31.2644 115.872C29.8364 115.872 29.1764 115.104 29.1764 112.98C29.1764 110.856 29.8364 110.088 31.2644 110.088C32.6924 110.088 33.3644 110.856 33.3644 112.98C33.3644 115.104 32.6924 115.872 31.2644 115.872Z" fill="#0B0F0E"/>
<path d="M50.1533 107.84L51.3266 110.187C51.4866 110.513 51.9133 110.827 52.2733 110.887L54.3999 111.24C55.7599 111.467 56.0799 112.453 55.0999 113.427L53.4466 115.08C53.1666 115.36 53.0133 115.9 53.0999 116.287L53.5733 118.333C53.9466 119.953 53.0866 120.58 51.6533 119.733L49.6599 118.553C49.2999 118.34 48.7066 118.34 48.3399 118.553L46.3466 119.733C44.9199 120.58 44.0533 119.947 44.4266 118.333L44.8999 116.287C44.9866 115.9 44.8333 115.36 44.5533 115.08L42.8999 113.427C41.9266 112.453 42.2399 111.467 43.5999 111.24L45.7266 110.887C46.0799 110.827 46.5066 110.513 46.6666 110.187L47.8399 107.84C48.4799 106.567 49.5199 106.567 50.1533 107.84Z" fill="#FFA439"/>
<rect x="69" y="110" width="201" height="8" rx="4" fill="#E4E9EE"/>
<rect x="69" y="110" width="160" height="8" rx="4" fill="#1D9E34"/>
<path d="M289.585 118V116.836H285.013C285.013 116.176 285.637 115.792 286.453 115.372L287.629 114.772C288.661 114.244 289.561 113.536 289.561 112.216C289.561 110.884 288.733 109.84 286.753 109.84C284.533 109.84 283.597 111.088 283.597 112.588V112.78H284.893V112.612C284.893 111.508 285.193 111.028 286.657 111.028C287.989 111.028 288.265 111.52 288.265 112.264C288.265 112.948 287.917 113.308 287.053 113.764L285.817 114.4C284.689 114.976 283.657 115.672 283.657 117.196V118H289.585ZM293.852 118.12C295.916 118.12 297.152 117.34 297.152 115.804C297.152 114.664 296.42 114.04 295.544 113.788V113.74C296.384 113.596 296.9 112.912 296.9 111.988C296.9 110.74 295.88 109.84 293.852 109.84C291.824 109.84 290.804 110.74 290.804 111.988C290.804 112.912 291.32 113.596 292.172 113.74V113.788C291.284 114.04 290.564 114.664 290.564 115.804C290.564 117.34 291.788 118.12 293.852 118.12ZM293.852 113.38C292.544 113.38 292.1 112.996 292.1 112.192C292.1 111.436 292.508 111.028 293.852 111.028C295.208 111.028 295.604 111.436 295.604 112.192C295.604 112.996 295.172 113.38 293.852 113.38ZM293.852 116.932C292.28 116.932 291.872 116.488 291.872 115.6C291.872 114.724 292.292 114.268 293.852 114.268C295.412 114.268 295.844 114.724 295.844 115.6C295.844 116.488 295.436 116.932 293.852 116.932ZM304.175 118V116.836H299.603C299.603 116.176 300.227 115.792 301.043 115.372L302.219 114.772C303.251 114.244 304.151 113.536 304.151 112.216C304.151 110.884 303.323 109.84 301.343 109.84C299.123 109.84 298.187 111.088 298.187 112.588V112.78H299.483V112.612C299.483 111.508 299.783 111.028 301.247 111.028C302.579 111.028 302.855 111.52 302.855 112.264C302.855 112.948 302.507 113.308 301.643 113.764L300.407 114.4C299.279 114.976 298.247 115.672 298.247 117.196V118H304.175ZM308.418 118.12C310.278 118.12 311.526 117.364 311.526 115.816C311.526 114.664 310.854 113.944 309.75 113.788V113.74C310.77 113.596 311.238 112.912 311.238 111.988C311.238 110.584 310.158 109.84 308.346 109.84C306.33 109.84 305.25 110.884 305.25 112.42V112.528H306.522V112.432C306.522 111.424 306.942 111.028 308.334 111.028C309.462 111.028 309.942 111.352 309.942 112.192C309.942 113.032 309.534 113.296 308.478 113.296H307.05V114.376H308.658C309.774 114.376 310.218 114.676 310.218 115.684C310.218 116.62 309.714 116.932 308.442 116.932C306.858 116.932 306.522 116.536 306.522 115.528V115.348H305.25V115.54C305.25 117.076 306.126 118.12 308.418 118.12Z" fill="#0B0F0E"/>
<path d="M23.084 146V144.332H24.332V143.168H23.084V137.96H21.584L17.156 143.432V144.332H21.8V146H23.084ZM18.812 143.168V143.072L21.704 139.556H21.8V143.168H18.812ZM26.5863 146V144.14H24.9423V146H26.5863ZM31.0887 146.12C33.2487 146.12 34.5687 144.524 34.5687 141.98C34.5687 139.436 33.2487 137.84 31.0887 137.84C28.9287 137.84 27.6207 139.436 27.6207 141.98C27.6207 144.524 28.9287 146.12 31.0887 146.12ZM31.0887 144.872C29.6607 144.872 29.0007 144.104 29.0007 141.98C29.0007 139.856 29.6607 139.088 31.0887 139.088C32.5167 139.088 33.1887 139.856 33.1887 141.98C33.1887 144.104 32.5167 144.872 31.0887 144.872Z" fill="#0B0F0E"/>
<path d="M50.1533 136.84L51.3266 139.187C51.4866 139.513 51.9133 139.827 52.2733 139.887L54.3999 140.24C55.7599 140.467 56.0799 141.453 55.0999 142.427L53.4466 144.08C53.1666 144.36 53.0133 144.9 53.0999 145.287L53.5733 147.333C53.9466 148.953 53.0866 149.58 51.6533 148.733L49.6599 147.553C49.2999 147.34 48.7066 147.34 48.3399 147.553L46.3466 148.733C44.9199 149.58 44.0533 148.947 44.4266 147.333L44.8999 145.287C44.9866 144.9 44.8333 144.36 44.5533 144.08L42.8999 142.427C41.9266 141.453 42.2399 140.467 43.5999 140.24L45.7266 139.887C46.0799 139.827 46.5066 139.513 46.6666 139.187L47.8399 136.84C48.4799 135.567 49.5199 135.567 50.1533 136.84Z" fill="#FFA439"/>
<rect x="69" y="139" width="201" height="8" rx="4" fill="#E4E9EE"/>
<rect x="69" y="139" width="30" height="8" rx="4" fill="#1D9E34"/>
<path d="M310.514 147V145.332H311.762V144.168H310.514V138.96H309.014L304.586 144.432V145.332H309.23V147H310.514ZM306.242 144.168V144.072L309.134 140.556H309.23V144.168H306.242Z" fill="#0B0F0E"/>
<path d="M20.648 175.12C22.508 175.12 23.756 174.364 23.756 172.816C23.756 171.664 23.084 170.944 21.98 170.788V170.74C23 170.596 23.468 169.912 23.468 168.988C23.468 167.584 22.388 166.84 20.576 166.84C18.56 166.84 17.48 167.884 17.48 169.42V169.528H18.752V169.432C18.752 168.424 19.172 168.028 20.564 168.028C21.692 168.028 22.172 168.352 22.172 169.192C22.172 170.032 21.764 170.296 20.708 170.296H19.28V171.376H20.888C22.004 171.376 22.448 171.676 22.448 172.684C22.448 173.62 21.944 173.932 20.672 173.932C19.088 173.932 18.752 173.536 18.752 172.528V172.348H17.48V172.54C17.48 174.076 18.356 175.12 20.648 175.12ZM26.2465 175V173.14H24.6025V175H26.2465ZM30.7488 175.12C32.9088 175.12 34.2288 173.524 34.2288 170.98C34.2288 168.436 32.9088 166.84 30.7488 166.84C28.5888 166.84 27.2808 168.436 27.2808 170.98C27.2808 173.524 28.5888 175.12 30.7488 175.12ZM30.7488 173.872C29.3208 173.872 28.6608 173.104 28.6608 170.98C28.6608 168.856 29.3208 168.088 30.7488 168.088C32.1768 168.088 32.8488 168.856 32.8488 170.98C32.8488 173.104 32.1768 173.872 30.7488 173.872Z" fill="#0B0F0E"/>
<path d="M50.1533 165.84L51.3266 168.187C51.4866 168.513 51.9133 168.827 52.2733 168.887L54.3999 169.24C55.7599 169.467 56.0799 170.453 55.0999 171.427L53.4466 173.08C53.1666 173.36 53.0133 173.9 53.0999 174.287L53.5733 176.333C53.9466 177.953 53.0866 178.58 51.6533 177.733L49.6599 176.553C49.2999 176.34 48.7066 176.34 48.3399 176.553L46.3466 177.733C44.9199 178.58 44.0533 177.947 44.4266 176.333L44.8999 174.287C44.9866 173.9 44.8333 173.36 44.5533 173.08L42.8999 171.427C41.9266 170.453 42.2399 169.467 43.5999 169.24L45.7266 168.887C46.0799 168.827 46.5066 168.513 46.6666 168.187L47.8399 165.84C48.4799 164.567 49.5199 164.567 50.1533 165.84Z" fill="#FFA439"/>
<rect x="69" y="168" width="201" height="8" rx="4" fill="#E4E9EE"/>
<path d="M307.878 176.12C310.038 176.12 311.358 174.524 311.358 171.98C311.358 169.436 310.038 167.84 307.878 167.84C305.718 167.84 304.41 169.436 304.41 171.98C304.41 174.524 305.718 176.12 307.878 176.12ZM307.878 174.872C306.45 174.872 305.79 174.104 305.79 171.98C305.79 169.856 306.45 169.088 307.878 169.088C309.306 169.088 309.978 169.856 309.978 171.98C309.978 174.104 309.306 174.872 307.878 174.872Z" fill="#0B0F0E"/>
<path d="M23.636 204V202.836H19.064C19.064 202.176 19.688 201.792 20.504 201.372L21.68 200.772C22.712 200.244 23.612 199.536 23.612 198.216C23.612 196.884 22.784 195.84 20.804 195.84C18.584 195.84 17.648 197.088 17.648 198.588V198.78H18.944V198.612C18.944 197.508 19.244 197.028 20.708 197.028C22.04 197.028 22.316 197.52 22.316 198.264C22.316 198.948 21.968 199.308 21.104 199.764L19.868 200.4C18.74 200.976 17.708 201.672 17.708 203.196V204H23.636ZM26.3168 204V202.14H24.6728V204H26.3168ZM30.8191 204.12C32.9791 204.12 34.2991 202.524 34.2991 199.98C34.2991 197.436 32.9791 195.84 30.8191 195.84C28.6591 195.84 27.3511 197.436 27.3511 199.98C27.3511 202.524 28.6591 204.12 30.8191 204.12ZM30.8191 202.872C29.3911 202.872 28.7311 202.104 28.7311 199.98C28.7311 197.856 29.3911 197.088 30.8191 197.088C32.2471 197.088 32.9191 197.856 32.9191 199.98C32.9191 202.104 32.2471 202.872 30.8191 202.872Z" fill="#0B0F0E"/>
<path d="M50.1533 194.84L51.3266 197.187C51.4866 197.513 51.9133 197.827 52.2733 197.887L54.3999 198.24C55.7599 198.467 56.0799 199.453 55.0999 200.427L53.4466 202.08C53.1666 202.36 53.0133 202.9 53.0999 203.287L53.5733 205.333C53.9466 206.953 53.0866 207.58 51.6533 206.733L49.6599 205.553C49.2999 205.34 48.7066 205.34 48.3399 205.553L46.3466 206.733C44.9199 207.58 44.0533 206.947 44.4266 205.333L44.8999 203.287C44.9866 202.9 44.8333 202.36 44.5533 202.08L42.8999 200.427C41.9266 199.453 42.2399 198.467 43.5999 198.24L45.7266 197.887C46.0799 197.827 46.5066 197.513 46.6666 197.187L47.8399 194.84C48.4799 193.567 49.5199 193.567 50.1533 194.84Z" fill="#FFA439"/>
<rect x="69" y="197" width="201" height="8" rx="4" fill="#E4E9EE"/>
<path d="M307.878 205.12C310.038 205.12 311.358 203.524 311.358 200.98C311.358 198.436 310.038 196.84 307.878 196.84C305.718 196.84 304.41 198.436 304.41 200.98C304.41 203.524 305.718 205.12 307.878 205.12ZM307.878 203.872C306.45 203.872 305.79 203.104 305.79 200.98C305.79 198.856 306.45 198.088 307.878 198.088C309.306 198.088 309.978 198.856 309.978 200.98C309.978 203.104 309.306 203.872 307.878 203.872Z" fill="#0B0F0E"/>
<path d="M20.264 233V224.96H19.124C18.788 225.68 18.344 225.956 17.588 225.956H17.276V226.88H18.968V233H20.264ZM23.2465 233V231.14H21.6025V233H23.2465ZM27.7488 233.12C29.9088 233.12 31.2288 231.524 31.2288 228.98C31.2288 226.436 29.9088 224.84 27.7488 224.84C25.5888 224.84 24.2808 226.436 24.2808 228.98C24.2808 231.524 25.5888 233.12 27.7488 233.12ZM27.7488 231.872C26.3208 231.872 25.6608 231.104 25.6608 228.98C25.6608 226.856 26.3208 226.088 27.7488 226.088C29.1768 226.088 29.8488 226.856 29.8488 228.98C29.8488 231.104 29.1768 231.872 27.7488 231.872Z" fill="#0B0F0E"/>
<path d="M50.1533 223.84L51.3266 226.187C51.4866 226.513 51.9133 226.827 52.2733 226.887L54.3999 227.24C55.7599 227.467 56.0799 228.453 55.0999 229.427L53.4466 231.08C53.1666 231.36 53.0133 231.9 53.0999 232.287L53.5733 234.333C53.9466 235.953 53.0866 236.58 51.6533 235.733L49.6599 234.553C49.2999 234.34 48.7066 234.34 48.3399 234.553L46.3466 235.733C44.9199 236.58 44.0533 235.947 44.4266 234.333L44.8999 232.287C44.9866 231.9 44.8333 231.36 44.5533 231.08L42.8999 229.427C41.9266 228.453 42.2399 227.467 43.5999 227.24L45.7266 226.887C46.0799 226.827 46.5066 226.513 46.6666 226.187L47.8399 223.84C48.4799 222.567 49.5199 222.567 50.1533 223.84Z" fill="#FFA439"/>
<rect x="69" y="226" width="201" height="8" rx="4" fill="#E4E9EE"/>
<path d="M307.878 234.12C310.038 234.12 311.358 232.524 311.358 229.98C311.358 227.436 310.038 225.84 307.878 225.84C305.718 225.84 304.41 227.436 304.41 229.98C304.41 232.524 305.718 234.12 307.878 234.12ZM307.878 232.872C306.45 232.872 305.79 232.104 305.79 229.98C305.79 227.856 306.45 227.088 307.878 227.088C309.306 227.088 309.978 227.856 309.978 229.98C309.978 232.104 309.306 232.872 307.878 232.872Z" fill="#0B0F0E"/>
</svg>
